<svg width="176" height="176" viewBox="0 0 176 176" fill="none" xmlns="http://www.w3.org/2000/svg">
<g clip-path="url(#clip0)">
<path d="M82 35V51H173V35H82Z" fill="#FF7A00"/>
<path d="M42.0082 92.3457H3.98352L21.0041 111.539L42.0082 115.161V92.3457Z" fill="#4F4F4F"/>
<path d="M130.047 89.4712H2.40621C2.00533 89.4711 1.61079 89.5711 1.2584 89.7622C0.906013 89.9533 0.606954 90.2294 0.388388 90.5655C0.169822 90.9015 0.0386746 91.2869 0.00685873 91.6865C-0.0249571 92.0861 0.0435667 92.4873 0.206206 92.8537C7.05371 108.185 24.0075 117.906 40.535 118.03C42.7591 122.603 43.4229 127.78 42.4245 132.767C41.4262 137.753 38.8208 142.275 35.0075 145.64L30.1675 149.957C29.9175 150.184 29.7166 150.46 29.577 150.767C29.4375 151.075 29.3624 151.407 29.3562 151.745V165.591C29.3591 166.228 29.6135 166.839 30.0642 167.289C30.5148 167.74 31.1252 167.995 31.7625 167.997H102.506C103.143 167.995 103.754 167.74 104.204 167.289C104.655 166.839 104.91 166.228 104.912 165.591V151.745C104.907 151.341 104.803 150.945 104.61 150.59L97.295 137.225C95.9115 134.69 95.1423 131.866 95.0492 128.98C94.956 126.093 95.5415 123.226 96.7587 120.607C97.9757 117.988 99.7905 115.691 102.057 113.902C104.323 112.112 106.978 110.879 109.807 110.302L130.515 106.109C131.061 105.999 131.553 105.703 131.906 105.272C132.26 104.841 132.453 104.301 132.454 103.744V91.8774C132.453 91.2395 132.199 90.6279 131.748 90.1768C131.297 89.7257 130.685 89.4719 130.047 89.4712ZM39.5862 113.176C26.4275 112.75 13.1862 105.71 6.36621 94.2837H39.5862V113.176ZM54.4087 163.185H34.1687V154.151H54.4087V163.185ZM75.0475 163.185H59.2212V147.304C59.2212 146.265 59.4259 145.236 59.8236 144.275C60.2212 143.315 60.8041 142.443 61.5389 141.708C62.2737 140.973 63.146 140.391 64.1061 139.993C65.0662 139.595 66.0952 139.391 67.1343 139.391C68.1735 139.391 69.2025 139.595 70.1626 139.993C71.1226 140.391 71.9949 140.973 72.7298 141.708C73.4646 142.443 74.0474 143.315 74.4451 144.275C74.8428 145.236 75.0475 146.265 75.0475 147.304V163.185ZM100.1 163.185H79.86V154.151H100.1V163.185ZM127.641 101.777L108.845 105.586C105.277 106.314 101.93 107.868 99.0723 110.125C96.2149 112.382 93.927 115.279 92.3929 118.581C90.8588 121.883 90.1212 125.5 90.2394 129.139C90.3577 132.778 91.3285 136.339 93.0737 139.535L98.45 149.339H79.86V147.304C79.86 143.929 78.5192 140.692 76.1327 138.305C73.7462 135.919 70.5094 134.578 67.1343 134.578C63.7593 134.578 60.5225 135.919 58.136 138.305C55.7494 140.692 54.4087 143.929 54.4087 147.304V149.339H38.0875L38.2112 149.229C42.9316 145.057 46.1094 139.417 47.2319 133.218C48.3545 127.019 47.3564 120.622 44.3987 115.06V94.2837H127.641V101.777Z" fill="black"/>
<path d="M173.594 34.3201H82.6651L76.4088 27.8576V22.9213H78.4851C79.9596 22.9177 81.3725 22.3294 82.4139 21.2854C83.4553 20.2415 84.0401 18.8271 84.0401 17.3526V13.5713C84.0401 12.0968 83.4553 10.6824 82.4139 9.63847C81.3725 8.59452 79.9596 8.0062 78.4851 8.00256H55.7838C54.3093 8.0062 52.8964 8.59452 51.855 9.63847C50.8136 10.6824 50.2288 12.0968 50.2288 13.5713V17.3526C50.2288 18.8271 50.8136 20.2415 51.855 21.2854C52.8964 22.3294 54.3093 22.9177 55.7838 22.9213H57.8601V27.8576L50.9026 35.0488C50.4664 35.4978 50.2243 36.1004 50.2288 36.7263V50.9576C50.2244 51.5795 50.4667 52.1777 50.9026 52.6213L57.8601 59.8126V64.7626H55.7838C54.3108 64.7633 52.8983 65.3488 51.8567 66.3904C50.815 67.432 50.2295 68.8445 50.2288 70.3176V74.0988C50.2277 74.8293 50.3706 75.5528 50.6492 76.228C50.9278 76.9032 51.3367 77.5169 51.8526 78.0341C52.3685 78.5512 52.9812 78.9617 53.6557 79.2419C54.3302 79.5222 55.0534 79.6669 55.7838 79.6676H78.4851C79.2155 79.6669 79.9387 79.5222 80.6132 79.2419C81.2877 78.9617 81.9004 78.5512 82.4163 78.0341C82.9322 77.5169 83.3411 76.9032 83.6197 76.228C83.8983 75.5528 84.0412 74.8293 84.0401 74.0988V70.3176C84.0393 68.8445 83.4539 67.432 82.4122 66.3904C81.3706 65.3488 79.9581 64.7633 78.4851 64.7626H76.4088V59.8126L82.6651 53.3638H173.594C174.232 53.3631 174.843 53.1093 175.295 52.6582C175.746 52.2071 175.999 51.5955 176 50.9576V36.7263C176.001 36.4101 175.939 36.0969 175.818 35.8046C175.698 35.5124 175.52 35.2468 175.297 35.0232C175.073 34.7996 174.808 34.6224 174.516 34.5018C174.223 34.3811 173.91 34.3193 173.594 34.3201ZM55.7838 18.1088C55.5852 18.1066 55.3955 18.0258 55.2563 17.8841C55.1172 17.7423 55.0399 17.5512 55.0413 17.3526V13.5713C55.0399 13.3727 55.1172 13.1815 55.2563 13.0398C55.3955 12.8981 55.5852 12.8172 55.7838 12.8151H78.4851C78.6837 12.8172 78.8734 12.8981 79.0125 13.0398C79.1517 13.1815 79.229 13.3727 79.2276 13.5713V17.3526C79.229 17.5512 79.1517 17.7423 79.0125 17.8841C78.8734 18.0258 78.6837 18.1066 78.4851 18.1088H55.7838ZM71.5963 22.9213V26.4276H62.6726V22.9213H71.5963ZM78.4851 69.5751C78.5827 69.5747 78.6794 69.5937 78.7696 69.6309C78.8599 69.668 78.9419 69.7227 79.0109 69.7917C79.0799 69.8608 79.1346 69.9428 79.1718 70.033C79.209 70.1233 79.2279 70.22 79.2276 70.3176V74.0988C79.2294 74.1975 79.2115 74.2955 79.175 74.3872C79.1386 74.4789 79.0841 74.5624 79.015 74.6328C78.9459 74.7032 78.8634 74.7591 78.7724 74.7973C78.6814 74.8354 78.5837 74.8551 78.4851 74.8551H55.7838C55.6851 74.8551 55.5875 74.8354 55.4965 74.7973C55.4055 74.7591 55.323 74.7032 55.2539 74.6328C55.1847 74.5624 55.1303 74.4789 55.0938 74.3872C55.0574 74.2955 55.0395 74.1975 55.0413 74.0988V70.3176C55.041 70.22 55.0599 70.1233 55.0971 70.033C55.1343 69.9428 55.189 69.8608 55.258 69.7917C55.327 69.7227 55.409 69.668 55.4992 69.6309C55.5895 69.5937 55.6862 69.5747 55.7838 69.5751H78.4851ZM62.6726 64.7626V61.2563H71.5963V64.7626H62.6726ZM79.2276 49.9813L72.9851 56.4438H61.2838L55.0413 49.9813V37.7026L61.2838 31.2401H72.9851L79.2276 37.7026V49.9813ZM171.188 48.5513H84.0401V39.1326H171.188V48.5513Z" fill="black"/>
<path d="M39.846 66.6133C40.2973 67.0646 40.9094 67.3181 41.5476 67.3181C42.1858 67.3181 42.7979 67.0646 43.2492 66.6133C43.7005 66.162 43.954 65.55 43.954 64.9118C43.954 64.2735 43.7005 63.6615 43.2492 63.2102L37.2542 57.2152C36.8029 56.7639 36.1908 56.5104 35.5526 56.5104C34.9144 56.5104 34.3023 56.7639 33.851 57.2152C33.3998 57.6665 33.1462 58.2785 33.1462 58.9167C33.1462 59.555 33.3998 60.167 33.851 60.6183L39.846 66.6133Z" fill="black"/>
<path d="M26.0136 71.863L33.3575 76.1022C33.9098 76.4162 34.564 76.499 35.1772 76.3326C35.7904 76.1661 36.3129 75.7638 36.6306 75.2135C36.9483 74.6632 37.0355 74.0096 36.8731 73.3953C36.7107 72.781 36.3119 72.2559 35.7637 71.9345L28.4198 67.6954C28.1461 67.5349 27.8433 67.4302 27.5289 67.3872C27.2144 67.3442 26.8946 67.3638 26.5878 67.4449C26.281 67.526 25.9933 67.667 25.7412 67.8598C25.4892 68.0526 25.2777 68.2933 25.119 68.5681C24.9603 68.8429 24.8576 69.1464 24.8167 69.4611C24.7758 69.7758 24.7975 70.0954 24.8807 70.4017C24.9638 70.708 25.1067 70.9947 25.3012 71.2455C25.4956 71.4963 25.7377 71.7062 26.0136 71.863Z" fill="#FF7A00"/>
<path d="M97.0172 57.2152L91.0222 63.2102C90.7987 63.4336 90.6215 63.6989 90.5006 63.9909C90.3796 64.2828 90.3174 64.5957 90.3174 64.9118C90.3174 65.2278 90.3796 65.5407 90.5006 65.8326C90.6215 66.1246 90.7987 66.3899 91.0222 66.6133C91.2456 66.8368 91.5109 67.014 91.8029 67.135C92.0948 67.2559 92.4077 67.3181 92.7238 67.3181C93.0398 67.3181 93.3527 67.2559 93.6446 67.135C93.9366 67.014 94.2019 66.8368 94.4253 66.6133L100.42 60.6183C100.872 60.167 101.125 59.555 101.125 58.9167C101.125 58.2785 100.872 57.6665 100.42 57.2152C99.969 56.7639 99.357 56.5104 98.7188 56.5104C98.0805 56.5104 97.4685 56.7639 97.0172 57.2152Z" fill="#FF7A00"/>
<path d="M97.625 75.222C97.7828 75.496 97.9931 75.7361 98.2438 75.9287C98.4945 76.1213 98.7807 76.2625 99.0861 76.3444C99.3914 76.4262 99.7099 76.4471 100.023 76.4058C100.337 76.3644 100.639 76.2617 100.913 76.1034L108.255 71.8643C108.803 71.5429 109.202 71.0178 109.364 70.4035C109.527 69.7892 109.44 69.1356 109.122 68.5853C108.804 68.035 108.282 67.6328 107.669 67.4663C107.055 67.2998 106.401 67.3826 105.849 67.6967L98.5064 71.9358C97.9538 72.2548 97.5505 72.7802 97.3852 73.3964C97.22 74.0127 97.3062 74.6694 97.625 75.222Z" fill="black"/>
</g>
<defs>
<clipPath id="clip0">
<rect width="176" height="176" fill="white"/>
</clipPath>
</defs>
</svg>
