<svg width="72" height="79" viewBox="0 0 72 79" fill="none" xmlns="http://www.w3.org/2000/svg">
<g clip-path="url(#clip0)" filter="url(#filter0_d)">
<path d="M61.631 -1H10.369C8.21881 -1 6.46957 0.749234 6.46957 2.89939V67.1008C6.46957 69.2509 8.21881 71.0001 10.3688 71.0001H61.631C63.781 71.0001 65.5302 69.2509 65.5302 67.1008C65.5302 64.0668 65.5302 4.67155 65.5302 2.89939C65.5304 0.749234 63.7811 -1 61.631 -1V-1ZM8.57895 2.89939C8.57895 1.91234 9.38192 1.10938 10.369 1.10938H61.631C62.618 1.10938 63.421 1.91234 63.421 2.89939V21.5928H8.57895V2.89939ZM61.6311 68.8906H10.3688C9.38192 68.8906 8.57895 68.0877 8.57895 67.1006V23.702H63.4209V67.1006C63.421 68.0877 62.618 68.8906 61.6311 68.8906Z" fill="black"/>
<path d="M56.824 3.96387H23.4747C22.8922 3.96387 22.42 4.43609 22.42 5.01855C22.42 5.60102 22.8922 6.07324 23.4747 6.07324H56.824C56.9916 6.07324 57.128 6.20965 57.128 6.37741V16.211C57.128 16.3787 56.9916 16.5152 56.824 16.5152H15.1759C15.0083 16.5152 14.8719 16.3788 14.8719 16.211V6.37741C14.8719 6.20979 15.0083 6.07324 15.1759 6.07324H18.5445C19.1269 6.07324 19.5992 5.60102 19.5992 5.01855C19.5992 4.43609 19.1269 3.96387 18.5445 3.96387H15.1759C13.8452 3.96387 12.7625 5.04654 12.7625 6.37741V16.211C12.7625 17.5418 13.8452 18.6246 15.1759 18.6246H56.824C58.1548 18.6246 59.2374 17.5419 59.2374 16.211V6.37741C59.2374 5.04668 58.1548 3.96387 56.824 3.96387Z" fill="black"/>
<path d="M22.8013 27.7964H16.7545C15.4043 27.7964 14.306 28.8948 14.306 30.2449V36.2918C14.306 37.642 15.4045 38.7404 16.7545 38.7404H22.8013C24.1515 38.7404 25.2499 37.642 25.2499 36.2918V30.2449C25.2498 28.8948 24.1513 27.7964 22.8013 27.7964ZM23.1404 36.2918C23.1404 36.4789 22.9882 36.631 22.8012 36.631H16.7543C16.5673 36.631 16.4153 36.4789 16.4153 36.2918V30.2449C16.4153 30.0579 16.5674 29.9058 16.7543 29.9058H22.8012C22.9882 29.9058 23.1404 30.0579 23.1404 30.2449V36.2918Z" fill="black"/>
<path d="M39.0234 26.7964H32.9765C31.6264 26.7964 30.528 27.8948 30.528 29.2449V35.2918C30.528 36.642 31.6264 37.7404 32.9765 37.7404H39.0234C40.3735 37.7404 41.472 36.642 41.472 35.2918V29.2449C41.472 27.8948 40.3735 26.7964 39.0234 26.7964ZM39.3626 35.2918C39.3626 35.4789 39.2104 35.631 39.0234 35.631H32.9765C32.7895 35.631 32.6373 35.4789 32.6373 35.2918V29.2449C32.6373 29.0579 32.7895 28.9058 32.9765 28.9058H39.0234C39.2104 28.9058 39.3626 29.0579 39.3626 29.2449V35.2918Z" fill="black"/>
<path d="M55.2457 26.7964H49.1988C47.8487 26.7964 46.7502 27.8948 46.7502 29.2449V35.2918C46.7502 36.642 47.8487 37.7404 49.1988 37.7404H55.2457C56.5958 37.7404 57.6941 36.642 57.6941 35.2918V29.2449C57.6941 27.8948 56.5957 26.7964 55.2457 26.7964ZM55.5847 35.2918C55.5847 35.4789 55.4326 35.631 55.2457 35.631H49.1988C49.0118 35.631 48.8596 35.4789 48.8596 35.2918V29.2449C48.8596 29.0579 49.0118 28.9058 49.1988 28.9058H55.2457C55.4327 28.9058 55.5847 29.0579 55.5847 29.2449V35.2918Z" fill="#FF7A00"/>
<path d="M22.8013 41.4595H16.7545C15.4043 41.4595 14.306 42.5579 14.306 43.908V49.9549C14.306 51.305 15.4045 52.4035 16.7545 52.4035H22.8013C24.1515 52.4035 25.2499 51.305 25.2499 49.9549V43.908C25.2498 42.5579 24.1513 41.4595 22.8013 41.4595ZM23.1404 49.9549C23.1404 50.1419 22.9882 50.2941 22.8012 50.2941H16.7543C16.5673 50.2941 16.4153 50.1419 16.4153 49.9549V43.908C16.4153 43.721 16.5674 43.5688 16.7543 43.5688H22.8012C22.9882 43.5688 23.1404 43.721 23.1404 43.908V49.9549Z" fill="black"/>
<path d="M39.0234 40.4595H32.9765C31.6264 40.4595 30.528 41.5579 30.528 42.908V48.9549C30.528 50.305 31.6264 51.4035 32.9765 51.4035H39.0234C40.3735 51.4035 41.472 50.305 41.472 48.9549V42.908C41.472 41.5579 40.3735 40.4595 39.0234 40.4595ZM39.3626 48.9549C39.3626 49.1419 39.2104 49.2941 39.0234 49.2941H32.9765C32.7895 49.2941 32.6373 49.1419 32.6373 48.9549V42.908C32.6373 42.721 32.7895 42.5688 32.9765 42.5688H39.0234C39.2104 42.5688 39.3626 42.721 39.3626 42.908V48.9549Z" fill="black"/>
<path d="M22.8013 55.1226H16.7545C15.4043 55.1226 14.306 56.221 14.306 57.5711V63.618C14.306 64.9681 15.4045 66.0666 16.7545 66.0666H22.8013C24.1515 66.0666 25.2499 64.9681 25.2499 63.618V57.5711C25.2498 56.221 24.1513 55.1226 22.8013 55.1226ZM23.1404 63.618C23.1404 63.805 22.9882 63.9572 22.8012 63.9572H16.7543C16.5673 63.9572 16.4153 63.805 16.4153 63.618V57.5711C16.4153 57.3841 16.5674 57.2319 16.7543 57.2319H22.8012C22.9882 57.2319 23.1404 57.3841 23.1404 57.5711V63.618Z" fill="black"/>
<path d="M39.0234 54.1226H32.9765C31.6264 54.1226 30.528 55.221 30.528 56.5711V62.618C30.528 63.9681 31.6264 65.0666 32.9765 65.0666H39.0234C40.3735 65.0666 41.472 63.9681 41.472 62.618V56.5711C41.472 55.221 40.3735 54.1226 39.0234 54.1226ZM39.3626 62.618C39.3626 62.805 39.2104 62.9572 39.0234 62.9572H32.9765C32.7895 62.9572 32.6373 62.805 32.6373 62.618V56.5711C32.6373 56.3841 32.7895 56.2319 32.9765 56.2319H39.0234C39.2104 56.2319 39.3626 56.3841 39.3626 56.5711V62.618Z" fill="black"/>
<path d="M55.2457 40.4595H49.1988C47.8487 40.4595 46.7502 41.5579 46.7502 42.908V50.2979C46.7502 50.8804 47.2225 51.3526 47.8049 51.3526C48.3874 51.3526 48.8596 50.8804 48.8596 50.2979V42.908C48.8596 42.721 49.0118 42.5688 49.1988 42.5688H55.2457C55.4327 42.5688 55.5847 42.721 55.5847 42.908V62.618C55.5847 62.8051 55.4326 62.9572 55.2457 62.9572H49.1988C49.0118 62.9572 48.8596 62.8051 48.8596 62.618V55.2282C48.8596 54.6457 48.3874 54.1735 47.8049 54.1735C47.2225 54.1735 46.7502 54.6457 46.7502 55.2282V62.618C46.7502 63.9682 47.8487 65.0666 49.1988 65.0666H55.2457C56.5958 65.0666 57.6941 63.9682 57.6941 62.618V42.908C57.6941 41.5579 56.5957 40.4595 55.2457 40.4595Z" fill="black"/>
</g>
<defs>
<filter id="filter0_d" x="-4" y="0" width="80" height="80" filterUnits="userSpaceOnUse" color-interpolation-filters="sRGB">
<feFlood flood-opacity="0" result="BackgroundImageFix"/>
<feColorMatrix in="SourceAlpha" type="matrix" values="0 0 0 0 0 0 0 0 0 0 0 0 0 0 0 0 0 0 127 0"/>
<feOffset dy="4"/>
<feGaussianBlur stdDeviation="2"/>
<feColorMatrix type="matrix" values="0 0 0 0 0 0 0 0 0 0 0 0 0 0 0 0 0 0 0.25 0"/>
<feBlend mode="normal" in2="BackgroundImageFix" result="effect1_dropShadow"/>
<feBlend mode="normal" in="SourceGraphic" in2="effect1_dropShadow" result="shape"/>
</filter>
<clipPath id="clip0">
<rect width="72" height="72" fill="white"/>
</clipPath>
</defs>
</svg>
