<svg width="175" height="174" viewBox="0 0 175 174" fill="none" xmlns="http://www.w3.org/2000/svg">
<path d="M153.461 167.308H121.154C119.538 167.308 118.461 168.378 118.461 169.985C118.461 171.591 119.538 172.661 121.154 172.661H153.461C155.077 172.661 156.154 171.591 156.154 169.985C156.154 168.378 155.077 167.308 153.461 167.308Z" fill="black"/>
<path d="M166.923 167.308H161.538C159.923 167.308 158.846 168.378 158.846 169.985C158.846 171.591 159.923 172.661 161.538 172.661H166.923C168.538 172.661 169.615 171.591 169.615 169.985C169.615 168.378 168.538 167.308 166.923 167.308Z" fill="#FF7A00"/>
<path d="M10.7692 38.8154C12.3846 38.8154 13.4615 37.7446 13.4615 36.1385V14.7231C13.4615 13.1169 12.3846 12.0461 10.7692 12.0461C9.15383 12.0461 8.0769 13.1169 8.0769 14.7231V36.1385C8.0769 37.7446 9.15383 38.8154 10.7692 38.8154Z" fill="#FF7A00"/>
<path d="M10.7692 9.36927C12.3846 9.36927 13.4615 8.2985 13.4615 6.69235V4.01542C13.4615 2.40927 12.3846 1.3385 10.7692 1.3385C9.15383 1.3385 8.0769 2.40927 8.0769 4.01542V6.69235C8.0769 8.2985 9.15383 9.36927 10.7692 9.36927Z" fill="black"/>
<path d="M24.1538 100.385C24.1538 98.7785 23.0769 97.7077 21.4615 97.7077H18.7692V95.0308C18.7692 93.4247 17.6922 92.3539 16.0769 92.3539C14.4615 92.3539 13.3846 93.4247 13.3846 95.0308V97.7077H10.6922C9.07686 97.7077 7.99994 98.7785 7.99994 100.385C7.99994 101.991 9.07686 103.062 10.6922 103.062H13.3846V105.738C13.3846 107.345 14.4615 108.415 16.0769 108.415C17.6922 108.415 18.7692 107.345 18.7692 105.738V103.062H21.4615C23.0769 103.062 24.1538 101.991 24.1538 100.385Z" fill="black"/>
<path d="M156.423 12.0462H153.731V9.36931C153.731 7.76315 152.654 6.69238 151.038 6.69238C149.423 6.69238 148.346 7.76315 148.346 9.36931V12.0462H145.654C144.038 12.0462 142.961 13.117 142.961 14.7232C142.961 16.3293 144.038 17.4001 145.654 17.4001H148.346V20.077C148.346 21.6832 149.423 22.7539 151.038 22.7539C152.654 22.7539 153.731 21.6832 153.731 20.077V17.4001H156.423C158.038 17.4001 159.115 16.3293 159.115 14.7232C159.115 13.117 158.038 12.0462 156.423 12.0462Z" fill="#FF7A00"/>
<path d="M53.0384 125.28C46.8461 125.28 40.923 123.138 36.3461 119.391L20.1923 153.655L45.7692 144.554L55.1923 169.985L71.6153 135.185C68.923 133.846 66.7692 132.24 64.6153 130.098C61.3846 126.886 57.3461 125.28 53.0384 125.28Z" fill="#FF7A00"/>
<path d="M127.615 121.532C123.577 123.942 119 125.28 113.884 125.28C109.577 125.28 105.538 126.886 102.577 130.098C99.6152 133.043 96.1152 135.185 92.0768 136.523L107.692 169.985L117.115 144.554L142.692 153.923L127.615 121.532Z" fill="#FF7A00"/>
<path fill-rule="evenodd" clip-rule="evenodd" d="M83.4615 25.4308C59.7692 25.4308 40.3846 44.7046 40.3846 68.2616C40.3846 91.8185 59.7692 111.092 83.4615 111.092C107.154 111.092 126.538 91.8185 126.538 68.2616C126.538 44.7046 107.154 25.4308 83.4615 25.4308ZM83.4615 84.3231L102.308 94.2277L98.2692 73.3477L113.615 58.6246L92.6154 55.68L83.1923 36.6739L73.7692 55.68L52.7692 58.6246L68.1154 73.3477L64.6154 94.2277L83.4615 84.3231Z" fill="#4F4F4F"/>
<path d="M113.885 119.926C125.731 119.926 135.423 110.289 135.423 98.5108C135.423 92.8893 137.577 87.2677 141.615 83.2523C149.961 74.9539 149.961 61.3016 141.615 53.0031C137.577 48.9877 135.423 43.6339 135.423 37.7446C135.423 25.9662 125.731 16.3293 113.885 16.3293C108.231 16.3293 102.577 14.1877 98.5384 10.1723C90.1922 1.87387 76.4614 1.87387 68.1153 10.1723C64.0768 14.1877 58.6922 16.3293 52.7691 16.3293C40.923 16.3293 31.2307 25.9662 31.2307 37.7446C31.2307 43.3662 29.0768 48.9877 25.0384 53.0031C16.6922 61.5693 16.6922 74.9539 25.0384 83.52C29.0768 87.5354 31.2307 92.8893 31.2307 98.7785C31.2307 110.557 40.923 120.194 52.7691 120.194C58.423 120.194 64.0768 122.335 68.1153 126.351C76.4614 134.649 90.1922 134.649 98.5384 126.351C102.846 122.335 108.231 119.926 113.885 119.926ZM83.4614 116.446C56.8076 116.446 34.9999 94.7631 34.9999 68.2616C34.9999 41.76 56.8076 20.077 83.4614 20.077C110.115 20.077 131.923 41.76 131.923 68.2616C131.923 94.7631 110.115 116.446 83.4614 116.446Z" fill="black"/>
</svg>
