<svg width="176" height="183" viewBox="0 0 176 183" fill="none" xmlns="http://www.w3.org/2000/svg">
<g filter="url(#filter0_d)">
<path d="M154.338 169.231H121.846C120.222 169.231 119.138 170.314 119.138 171.938C119.138 173.563 120.222 174.646 121.846 174.646H154.338C155.963 174.646 157.046 173.563 157.046 171.938C157.046 170.314 155.963 169.231 154.338 169.231Z" fill="#FF7A00"/>
<path d="M167.877 169.231H162.462C160.837 169.231 159.754 170.314 159.754 171.938C159.754 173.563 160.837 174.646 162.462 174.646H167.877C169.502 174.646 170.585 173.563 170.585 171.938C170.585 170.314 169.502 169.231 167.877 169.231Z" fill="#1C1F20"/>
<path d="M10.8308 39.2615C12.4554 39.2615 13.5385 38.1784 13.5385 36.5538V14.8923C13.5385 13.2676 12.4554 12.1846 10.8308 12.1846C9.20618 12.1846 8.12311 13.2676 8.12311 14.8923V36.5538C8.12311 38.1784 9.20618 39.2615 10.8308 39.2615Z" fill="#1C1F20"/>
<path d="M10.8308 9.47684C12.4554 9.47684 13.5385 8.39376 13.5385 6.76914V4.06145C13.5385 2.43684 12.4554 1.35376 10.8308 1.35376C9.20618 1.35376 8.12311 2.43684 8.12311 4.06145V6.76914C8.12311 8.39376 9.20618 9.47684 10.8308 9.47684Z" fill="#FF7A00"/>
<path d="M21.6616 101.538C21.6616 99.9137 20.5785 98.8307 18.9539 98.8307H16.2462V96.123C16.2462 94.4984 15.1631 93.4153 13.5385 93.4153C11.9139 93.4153 10.8308 94.4984 10.8308 96.123V98.8307H8.1231C6.49848 98.8307 5.41541 99.9137 5.41541 101.538C5.41541 103.163 6.49848 104.246 8.1231 104.246H10.8308V106.954C10.8308 108.578 11.9139 109.661 13.5385 109.661C15.1631 109.661 16.2462 108.578 16.2462 106.954V104.246H18.9539C20.5785 104.246 21.6616 103.163 21.6616 101.538Z" fill="#FF7A00"/>
<path d="M157.317 12.1844H154.609V9.47674C154.609 7.85212 153.526 6.76904 151.902 6.76904C150.277 6.76904 149.194 7.85212 149.194 9.47674V12.1844H146.486C144.862 12.1844 143.778 13.2675 143.778 14.8921C143.778 16.5167 144.862 17.5998 146.486 17.5998H149.194V20.3075C149.194 21.9321 150.277 23.0152 151.902 23.0152C153.526 23.0152 154.609 21.9321 154.609 20.3075V17.5998H157.317C158.942 17.5998 160.025 16.5167 160.025 14.8921C160.025 13.2675 158.942 12.1844 157.317 12.1844Z" fill="#1C1F20"/>
<path d="M53.3416 126.72C47.1139 126.72 41.157 124.554 36.5539 120.763L20.3077 155.421L46.0308 146.215L55.5077 171.938L72.0247 136.738C69.317 135.384 67.1508 133.76 64.9847 131.594C61.7354 128.344 57.6739 126.72 53.3416 126.72Z" fill="#4F4F4F"/>
<path d="M116.444 68.3659C117.917 66.1375 118.652 63.6844 118.652 61.0051C118.652 57.9038 117.511 55.2102 115.229 52.9199C112.945 50.632 110.241 49.4883 107.117 49.4883H99.1862C100.628 46.5081 101.35 43.6175 101.35 40.8181C101.35 37.2955 100.823 34.4959 99.7723 32.4185C98.7206 30.3405 97.1883 28.813 95.1753 27.8341C93.1619 26.8557 90.8945 26.3669 88.3711 26.3669C86.8383 26.3669 85.4869 26.9239 84.3153 28.0382C83.0238 29.3024 82.0925 30.9285 81.5219 32.9156C80.951 34.9021 80.4927 36.8066 80.1475 38.6281C79.8024 40.4494 79.2686 41.7364 78.5479 42.489C77.0755 44.0846 75.4685 46.0119 73.7261 48.2696C70.6919 52.2131 68.6338 54.5465 67.5529 55.2694H55.2061C53.6139 55.2694 52.2544 55.8347 51.1278 56.9627C50.0017 58.0919 49.4382 59.4542 49.4382 61.05V89.9511C49.4382 91.5469 50.0011 92.9087 51.1278 94.0379C52.255 95.1671 53.6139 95.7321 55.2061 95.7321H68.1831C68.8441 95.7321 70.9165 96.3341 74.4014 97.5384C78.0967 98.8331 81.3486 99.8188 84.1572 100.496C86.9661 101.174 89.8126 101.513 92.6968 101.513H96.8863H98.5095C102.745 101.513 106.154 100.3 108.738 97.8767C111.321 95.4529 112.598 92.1489 112.569 87.9642C114.371 85.6459 115.272 82.9665 115.272 79.9262C115.272 79.2643 115.228 78.6171 115.137 77.9842C116.278 75.9679 116.85 73.8002 116.85 71.4819C116.85 70.3979 116.715 69.3588 116.444 68.3659ZM60.118 89.0937C59.5472 89.6653 58.8714 89.9522 58.0903 89.9522C57.3091 89.9522 56.6331 89.6655 56.0622 89.0937C55.4916 88.5222 55.2061 87.8446 55.2061 87.0612C55.2061 86.2786 55.491 85.6015 56.0622 85.0292C56.6337 84.4571 57.3091 84.1712 58.0903 84.1712C58.8714 84.1712 59.5472 84.4571 60.118 85.0292C60.6888 85.6013 60.9743 86.2785 60.9743 87.0612C60.9743 87.8446 60.6888 88.5222 60.118 89.0937ZM111.917 64.7102C111.271 66.0948 110.467 66.8023 109.506 66.832C109.957 67.344 110.332 68.0597 110.633 68.9771C110.933 69.8956 111.082 70.7307 111.082 71.4838C111.082 73.5601 110.287 75.3518 108.695 76.8566C109.236 77.8196 109.506 78.8587 109.506 79.9721C109.506 81.0861 109.244 82.1925 108.718 83.2911C108.193 84.3888 107.479 85.1793 106.578 85.6608C106.728 86.5638 106.802 87.407 106.802 88.1896C106.802 93.217 103.918 95.7308 98.1496 95.7308H92.6988C88.7625 95.7308 83.6263 94.6326 77.287 92.4344C77.1366 92.3743 76.7016 92.2157 75.9802 91.9602C75.2587 91.7048 74.7258 91.5164 74.3801 91.3963C74.0345 91.275 73.5092 91.102 72.8028 90.8767C72.0965 90.6504 71.5264 90.4846 71.0905 90.3798C70.6552 90.2748 70.1591 90.1768 69.6039 90.0864C69.0483 89.9961 68.575 89.9511 68.1845 89.9511H66.7426V61.0511H68.1845C68.6651 61.0511 69.1982 60.9152 69.7841 60.6449C70.3698 60.3738 70.971 59.9675 71.5867 59.4254C72.2027 58.8834 72.7805 58.3491 73.3215 57.8219C73.8624 57.2952 74.4631 56.6329 75.1243 55.8355C75.7851 55.0373 76.3033 54.3979 76.6791 53.9161C77.0544 53.4344 77.5274 52.817 78.0983 52.0644C78.6688 51.312 79.0146 50.8602 79.1347 50.7095C80.7867 48.6626 81.9433 47.2929 82.6042 46.6001C83.8359 45.306 84.7295 43.6577 85.2852 41.6556C85.8416 39.6532 86.2996 37.764 86.6588 35.9881C87.019 34.212 87.5905 32.9321 88.3725 32.1493C91.2558 32.1493 93.1789 32.8565 94.1399 34.2716C95.1008 35.6864 95.5816 37.8693 95.5816 40.8197C95.5816 42.5957 94.86 45.0116 93.4177 48.0671C91.9761 51.123 91.2558 53.524 91.2558 55.27H107.117C108.621 55.27 109.957 55.8492 111.128 57.0089C112.3 58.1678 112.887 59.5148 112.887 61.0506C112.886 62.1042 112.563 63.3237 111.917 64.7102Z" fill="#FF7A00"/>
<path d="M128.345 122.929C124.283 125.366 119.68 126.72 114.535 126.72C110.203 126.72 106.141 128.345 103.163 131.594C100.185 134.572 96.6645 136.738 92.603 138.092L108.308 171.938L117.785 146.215L143.508 155.692L128.345 122.929Z" fill="#4F4F4F"/>
<path d="M114.535 121.304C126.449 121.304 136.197 111.557 136.197 99.6429C136.197 93.9567 138.363 88.2706 142.425 84.209C150.818 75.8152 150.818 62.006 142.425 53.6121C138.363 49.5506 136.197 44.1352 136.197 38.1783C136.197 26.2644 126.449 16.5167 114.535 16.5167C108.849 16.5167 103.163 14.3506 99.1015 10.289C90.7076 1.89519 76.8984 1.89519 68.5046 10.289C64.443 14.3506 59.0276 16.5167 53.0707 16.5167C41.1569 16.5167 31.4092 26.2644 31.4092 38.1783C31.4092 43.8644 29.243 49.5506 25.1815 53.6121C16.7876 62.2767 16.7876 75.8152 25.1815 84.4798C29.243 88.5414 31.4092 93.9567 31.4092 99.9137C31.4092 111.828 41.1569 121.575 53.0707 121.575C58.7569 121.575 64.443 123.741 68.5046 127.803C76.8984 136.197 90.7076 136.197 99.1015 127.803C103.434 123.741 108.849 121.304 114.535 121.304ZM83.9384 117.784C57.1323 117.784 35.2 95.8521 35.2 69.046C35.2 42.2398 57.1323 20.3075 83.9384 20.3075C110.745 20.3075 132.677 42.2398 132.677 69.046C132.677 95.8521 110.745 117.784 83.9384 117.784Z" fill="black"/>
</g>
<defs>
<filter id="filter0_d" x="-4" y="0" width="184" height="184" filterUnits="userSpaceOnUse" color-interpolation-filters="sRGB">
<feFlood flood-opacity="0" result="BackgroundImageFix"/>
<feColorMatrix in="SourceAlpha" type="matrix" values="0 0 0 0 0 0 0 0 0 0 0 0 0 0 0 0 0 0 127 0"/>
<feOffset dy="4"/>
<feGaussianBlur stdDeviation="2"/>
<feColorMatrix type="matrix" values="0 0 0 0 0 0 0 0 0 0 0 0 0 0 0 0 0 0 0.25 0"/>
<feBlend mode="normal" in2="BackgroundImageFix" result="effect1_dropShadow"/>
<feBlend mode="normal" in="SourceGraphic" in2="effect1_dropShadow" result="shape"/>
</filter>
</defs>
</svg>
