<svg width="57" height="57" viewBox="0 0 57 57" fill="none" xmlns="http://www.w3.org/2000/svg">
<path d="M40.4425 0H16.5576C7.4277 0 0 7.4277 0 16.5576V40.4424C0 49.5723 7.4277 57 16.5576 57H40.4424C49.5723 57 57 49.5723 57 40.4425V16.5576C57 7.4277 49.5723 0 40.4425 0ZM52.5469 40.4424C52.5469 47.1168 47.1168 52.5469 40.4425 52.5469H16.5576C9.88315 52.5469 4.45312 47.1168 4.45312 40.4425V16.5576C4.45312 9.88315 9.88315 4.45312 16.5576 4.45312H40.4424C47.1168 4.45312 52.5469 9.88315 52.5469 16.5576V40.4424Z" fill="white"/>
<path d="M28.5 13.1367C20.0286 13.1367 13.1367 20.0286 13.1367 28.5C13.1367 36.9714 20.0286 43.8633 28.5 43.8633C36.9714 43.8633 43.8633 36.9714 43.8633 28.5C43.8633 20.0286 36.9714 13.1367 28.5 13.1367ZM28.5 39.4102C22.4842 39.4102 17.5898 34.5158 17.5898 28.5C17.5898 22.4842 22.4842 17.5898 28.5 17.5898C34.5158 17.5898 39.4102 22.4842 39.4102 28.5C39.4102 34.5158 34.5158 39.4102 28.5 39.4102Z" fill="white"/>
<path d="M44.0859 15.1406C45.3156 15.1406 46.3125 14.1438 46.3125 12.9141C46.3125 11.6844 45.3156 10.6875 44.0859 10.6875C42.8562 10.6875 41.8594 11.6844 41.8594 12.9141C41.8594 14.1438 42.8562 15.1406 44.0859 15.1406Z" fill="white"/>
</svg>
