<svg width="103" height="80" viewBox="0 0 103 80" fill="none" xmlns="http://www.w3.org/2000/svg">
<path d="M88.7562 0.707152C85.8497 2.54599 86.9156 5.57121 85.5813 8.2173C85.0472 9.30851 84.9285 11.0416 85.2845 12.5501L85.6406 13.9943L84.4537 14.9572C82.2886 16.7741 81.3185 20.2515 82.792 22.9487C83.2371 23.719 83.3558 24.2967 83.2075 25.1633C82.8514 27.6666 84.9878 31.0366 87.3913 31.7427C90.2695 32.6092 93.2664 29.8812 92.3466 27.2173C92.1686 26.7359 91.6344 26.094 91.1597 25.7731C90.2992 25.2275 90.2992 25.1954 90.863 24.4893C91.1013 24.1542 91.7459 21.5366 91.9905 21.5366C94.0245 21.5366 96.548 25.4435 97.0645 27.1852C99.6387 35.5383 82.8082 34.2627 79.4687 34.2139L77.8367 32.3845C75.9377 30.2021 76.3234 30.0416 72.8814 34.3744C67.8074 40.7612 66.6205 43.2646 65.1665 50.5822L64.9588 51.545C64.5116 50.126 64.0764 48.711 63.3269 47.4369L62.585 46.1531L63.7126 43.5856C65.2591 40.1641 64.4913 34.7569 60.8047 34.7916C57.0793 34.288 56.1082 41.1104 59.9145 40.7292C61.7542 40.5687 62.0213 38.4825 60.2409 38.3221C59.5881 38.2579 59.5881 38.2579 60.3596 38.5788C61.3388 38.996 61.4278 39.991 60.508 40.2477C57.018 41.2772 57.9192 34.0184 61.8729 35.9471C64.896 37.9541 63.4331 42.5955 62.1098 45.4582C62.0504 45.5224 61.5465 44.9015 60.8344 44.3558C59.4694 43.2646 57.155 42.3981 55.6713 42.3981C51.7249 42.3981 48.4016 45.7038 48.4016 49.6194V50.5822L45.0782 50.4859C41.3395 50.3575 38.4316 50.871 36.0578 52.0585C33.4169 53.3744 30.9244 55.268 29.3815 57.0974C28.0165 58.7663 25.1777 63.3785 25.3657 64.8696C25.3657 65.0317 25.0196 65.0569 24.0404 63.741C22.2163 61.2488 18.8655 60.6209 16.2068 61.9437C14.0457 62.9626 13.3807 65.8002 11.2515 66.5011C10.391 66.7258 9.5602 67.3356 8.72936 68.2663C7.63148 69.4859 7.30508 69.6785 6.2072 69.6785C4.87193 69.6785 2.67616 70.6092 1.72664 71.54C-0.172399 73.4015 -0.587815 77.0602 0.895812 78.6971C2.37944 80.2697 5.19833 79.8846 6.05883 77.9589C6.56327 76.8035 6.41491 75.8728 5.67309 75.616C5.04997 75.3913 2.79485 76.3221 3.09158 76.643C4.1944 76.3225 3.65536 76.643 4.07077 76.3863C5.95799 75.3213 5.70432 79.54 3.1806 78.8575C2.05304 78.5687 1.16286 76.8677 1.40025 75.4555C1.78599 72.9521 4.15979 70.7055 5.94014 71.1227C6.7413 71.3153 6.54962 71.4949 6.69798 73.4848C6.93536 75.9561 7.57213 76.6751 9.35249 77.991C11.0735 79.2748 13.1209 79.7562 14.9606 79.3069C16.0882 79.0501 16.6519 79.0822 17.8685 79.4994C20.3017 80.366 23.4766 80.013 26.2658 78.5687L28.5506 77.3812L29.6782 78.1515C32.0817 79.7883 34.6335 79.9809 37.3337 78.665C38.669 78.0231 38.669 78.0231 39.4998 78.665C42.4368 80.9946 46.3244 79.5855 49.5885 79.4994C51.5172 79.4673 51.9919 79.339 53.0898 78.5366L54.3657 77.5738L55.0185 78.4082C55.879 79.4994 56.7395 79.9488 58.0451 79.9488C59.2914 79.9488 60.5673 78.7934 60.5673 77.638C60.5673 76.7072 59.7958 75.4555 59.232 75.4555C58.6386 75.4555 57.1253 76.964 57.3923 77.2849C57.5407 77.4133 57.8968 77.2207 58.1935 76.8356C59.1133 75.5839 60.3003 76.0653 60.0332 77.5738C59.7068 79.4994 56.9473 79.7241 55.701 77.8947C54.8998 76.7393 54.8998 74.4606 55.7307 73.2731C57.333 70.9302 59.5288 70.3846 61.7839 71.7646C66.0083 74.3499 70.67 75.5293 74.8398 78.2478C76.7685 79.5315 78.9346 79.8846 85.1955 79.9167C89.9728 79.9488 91.7531 79.6278 94.6017 78.1515C99.5867 75.5839 103 69.8171 103 63.2698C103 58.2911 99.8641 52.3447 95.9963 49.9082C94.8984 49.2021 94.7501 48.9775 94.9874 48.496C95.4325 47.5974 95.3435 44.7731 94.8391 43.4572C94.572 42.8153 94.0379 41.7883 93.6225 41.1785C93.2071 40.6008 92.9104 40.0552 92.94 40.0231C92.9994 39.9589 93.5038 39.67 94.0676 39.3491C99.9251 36.1166 98.8936 30.3627 98.7559 24.5535C98.6372 20.3491 96.1447 16.6261 90.5959 12.2612C88.6375 10.7207 87.688 9.53318 87.421 8.28149C87.1836 7.35074 88.0738 5.90648 89.6464 5.58553C95.0247 5.36366 96.3003 8.25594 95.6402 11.0095C95.1513 12.9929 91.5809 13.0299 91.432 11.2463C91.5443 10.8836 92.1389 9.75784 92.7323 10.6886C93.3258 11.5872 93.7115 11.2021 93.2665 10.143C92.3065 7.84395 88.0738 12.3197 93.1478 13.3203C96.0117 13.2265 97.8868 10.959 96.4711 7.89634C95.8672 6.58993 96.4711 5.98837 96.4711 4.62269C96.4711 0.630272 91.5338 -1.08113 88.7562 0.707152ZM93.4148 1.31695C94.4506 1.80989 96.4927 3.46355 95.409 6.17438C94.9204 6.51629 91.1688 3.71816 88.2644 5.36366C86.8105 6.19813 86.866 5.90093 87.0737 4.55296C87.6057 1.22849 90.6885 -0.073988 93.4148 1.31695ZM90.2399 12.871L91.5751 14.1227L90.5366 13.8339C89.9728 13.6413 88.9936 13.5129 88.3705 13.5129C87.3616 13.5129 87.1836 13.3845 86.7978 12.3896C86.3527 11.2342 86.2341 9.59737 86.5605 9.24433C86.6791 9.11595 87.2429 9.62945 87.8364 10.3355C88.4298 11.0416 89.498 12.197 90.2399 12.871ZM92.3763 15.5349C95.3138 17.0112 97.569 20.2207 97.8954 23.3981L98.0437 24.9065L96.5898 23.1413C94.483 20.5737 92.584 18.6802 91.5751 18.1025C89.9728 17.2038 88.2221 15.6954 88.0738 15.1177C87.9551 14.572 88.1034 14.5399 89.3497 14.6362C90.1508 14.6683 91.4861 15.0856 92.3763 15.5349ZM89.2607 18.2308C92.2165 20.4357 86.8485 19.6524 84.8394 21.8254C83.7416 22.9167 83.7119 22.9167 83.2965 22.3069C82.6437 21.4082 82.436 19.4504 82.8217 18.1987C83.2075 16.915 84.9285 15.1177 85.789 15.1177C86.8589 15.1177 88.4267 17.6087 89.2607 18.2308ZM88.0738 25.067C86.4714 25.067 84.8988 24.5214 84.8988 23.9437C84.8988 23.2376 86.9759 21.4724 87.5396 21.6971C88.5782 22.1464 89.6464 22.2427 89.6464 21.9217C89.6464 21.7291 89.2903 21.5045 88.8452 21.4403C88.3408 21.3761 88.5485 21.2798 89.4387 21.2477L90.8333 21.2156C90.8333 23.2544 90.3479 25.067 88.0738 25.067ZM88.4595 26.768C88.4595 28.8739 91.3582 28.8017 89.5871 27.3457C88.7562 26.6075 89.1123 25.9977 90.1805 26.3187C93.4249 27.2497 90.356 32.2744 86.9462 29.7849C85.878 29.0146 84.6021 26.8964 84.6021 25.9014C84.6021 25.0948 88.4595 25.7017 88.4595 26.768ZM97.5346 33.252C97.0005 35.6912 95.5216 36.7815 93.3851 37.9048L91.4564 38.9319L89.9134 38.3862C88.7859 37.969 87.8067 37.8727 86.2637 38.0011C84.7208 38.0974 83.9196 38.0332 83.2668 37.6802C82.0206 37.0062 80.4479 35.6903 80.4479 35.3373C80.4479 35.242 90.2831 35.9608 92.3251 34.8734C94.7484 33.583 97.7253 32.9733 97.5346 33.252ZM77.7477 35.1126C77.6884 35.1768 76.9762 35.6261 76.1454 36.1396C73.0594 38.0332 69.8845 42.0771 68.4008 45.8964C68.0151 46.8913 67.7184 47.4369 67.6887 47.1481C67.6887 46.4099 69.4987 41.8846 70.5373 40.0873C71.4868 38.4504 75.641 33.0906 75.9674 33.0906C76.336 33.0906 77.8879 35.0115 77.7477 35.1126ZM80.4182 37.616C81.2787 38.4825 81.9612 39.2528 81.9019 39.317C81.8425 39.3491 81.1304 39.7984 80.2995 40.3119C79.4984 40.8254 78.0444 42.045 77.0652 43.0079C71.2791 48.9454 68.935 55.7494 70.2109 62.746C70.5076 64.2866 70.656 65.6346 70.5373 65.7309C70.4483 65.8271 69.7658 64.5433 69.024 62.8744C67.7777 60.0822 67.6294 59.5366 67.481 56.7764C67.1546 50.9031 68.7272 45.1903 71.8429 40.9538C72.8221 39.6379 76.0564 36.7173 77.0059 36.3001C78.1928 35.7866 78.8159 36.0112 80.4182 37.616ZM88.4595 38.8677C89.0826 39.0923 89.0233 39.1244 87.9551 39.1565C87.2726 39.1886 86.6198 39.0281 86.5308 38.8677C86.3231 38.4825 87.3913 38.4825 88.4595 38.8677ZM85.1362 40.344C86.3527 40.7292 87.51 40.8254 89.3793 40.7292C91.9015 40.5687 92.0202 40.5687 92.7027 41.4031C94.216 43.1362 94.9578 45.8643 94.394 47.6616L94.0676 48.7207L92.5246 48.2714C91.1597 47.8541 88.4298 47.8542 86.9759 48.2072C86.3527 48.3677 86.2341 46.2815 86.8275 45.4792C87.3913 44.6768 88.9936 44.6447 89.5574 45.4471C90.4997 46.8955 86.9064 47.5332 88.5485 47.5332C90.7146 47.5011 90.7443 44.9015 88.5782 44.1954C86.9462 43.6498 85.2549 45.6717 85.6109 47.6937C85.789 48.6886 85.6999 48.817 84.4834 49.5873C82.9997 50.518 81.8128 52.0264 81.3084 53.5991C80.982 54.6261 80.9227 54.6582 79.8841 54.4014C77.9554 53.9521 76.2047 54.0805 74.9585 54.7866C73.4452 55.6531 71.9022 57.8035 71.6648 59.4403C71.3681 61.366 71.0417 60.9488 70.8933 58.4133C70.6856 55.5889 71.1307 53.7275 72.7627 50.1008C73.7716 47.8862 74.5134 46.8271 76.7092 44.4521C79.4687 41.4994 81.5458 39.9268 82.7624 39.8626C83.1481 39.8305 84.2163 40.0552 85.1362 40.344ZM57.9561 44.5163C59.3434 44.9965 60.421 46.0267 61.4872 47.0518L61.0124 49.2663C60.7453 50.5501 60.5376 52.893 60.5376 54.6903C60.5376 57.6751 60.508 57.8356 60.0035 57.4183C59.7068 57.1937 58.8463 56.5197 58.1045 55.9099C56.5912 54.6903 56.5318 54.4977 57.155 53.3102C57.8078 52.0906 57.6891 50.8069 56.8582 49.9403C55.2856 48.2072 52.9711 49.5552 54.158 51.545C54.4251 51.9944 54.7811 52.3474 54.9295 52.3474C55.5952 52.3474 53.7924 50.7031 54.4844 50.0045C55.3153 49.0737 57.0066 50.2612 57.0066 51.7697C57.0066 54.9236 53.9302 53.0948 52.5557 52.3795C51.4875 51.8339 50.449 51.3846 50.2709 51.3846C50.0632 51.3846 49.8852 51.2883 49.8555 51.1278C49.8555 50.9994 49.7665 50.5501 49.7071 50.1008C49.6181 49.6514 49.7665 48.7207 50.0335 47.9825C51.1908 44.7089 54.5438 43.2325 57.9561 44.5163ZM62.6741 49.6835C62.8521 50.1971 63.1191 51.4487 63.2675 52.5079C63.5939 54.6261 64.6918 58.5096 65.0479 58.7663C65.2259 58.8947 65.938 61.3981 66.4128 63.5484L66.5908 64.3187L65.671 63.6126C64.6324 62.8423 62.318 59.9859 61.7542 58.7984C61.1904 57.643 61.0421 53.3423 61.4575 50.9352C61.8432 48.6565 62.1696 48.3035 62.6741 49.6835ZM92.4059 50.0687C93.5011 51.2532 86.8494 51.2592 87.777 49.7156C87.9847 49.2984 91.9905 49.6194 92.4059 50.0687ZM87.7177 51.0636C88.8156 51.866 90.952 51.8981 92.6433 51.192C93.8302 50.6464 93.8599 50.6464 95.0468 51.5771C96.7381 52.8609 96.7678 53.2139 95.1952 53.4707C91.6641 54.0484 89.9134 57.1937 91.3971 60.3069C92.0202 61.6548 93.3555 62.6177 94.5127 62.6177C95.4622 62.6177 96.7678 61.3018 96.7678 60.371C96.7678 59.7292 96.1041 59.2402 95.5996 59.2402C95.2139 59.2402 93.5928 59.6971 93.9786 59.7291C97.0263 59.7291 95.4938 62.3381 94.305 61.7511C92.1327 61.4077 90.7836 57.6155 92.762 55.3964C94.6437 53.4268 97.9236 53.9685 99.201 56.4555C101.349 60.6803 101.372 65.7943 99.4383 70.1599C98.3701 72.567 94.1863 75.5518 90.8036 76.3863C89.409 76.7393 89.3497 76.5146 90.5662 75.263C92.7178 73.0522 93.0326 69.3758 91.3971 66.6937C90.3289 64.9285 88.5782 63.9015 86.5901 63.9015C84.7208 63.9015 83.1481 65.3457 82.9404 67.2714C82.4953 71.1548 87.2726 73.5619 88.4892 70.0636C89.3064 68.1341 88.1628 67.7528 87.4506 67.7528C87.0055 67.7528 86.3295 68.1341 85.9076 69.0366C86.6297 68.5231 86.4121 68.8119 86.7088 68.5231C87.866 67.3998 88.7266 69.1008 87.6583 70.3846C86.8869 71.3153 85.5814 71.2335 84.3945 69.9177C82.883 68.2828 83.5539 65.6083 85.6703 64.8643C88.4298 63.8694 91.6938 66.79 91.7235 70.2562C91.7235 72.3423 90.2399 74.942 88.4002 75.969C82.626 79.2479 76.802 74.196 74.5431 68.844C73.7681 67.0745 74.3171 59.6773 77.0356 62.6177C78.7269 64.415 81.2787 64.2224 82.3469 62.2646C82.792 61.4302 82.9997 61.3018 83.6822 61.4944C86.6791 62.3609 88.6672 61.8474 89.3497 60.0822C89.6464 59.2477 89.6464 58.9589 89.231 58.2849C88.5485 57.1937 87.4803 57.2258 86.7088 58.4133C84.9783 61.077 88.7562 56.5865 88.7562 59.1194C88.7562 60.3389 87.9254 61.0129 86.3824 61.0129C85.2252 61.0129 84.8691 60.8525 84.0976 59.9538C82.8217 58.5096 82.525 57.7393 82.525 55.9741C82.525 54.0805 83.4745 52.1869 84.8691 51.1599C86.1154 50.2612 86.5605 50.2291 87.7177 51.0636ZM48.2235 51.5771C49.1657 51.9593 50.1962 54.447 50.9237 55.3322L49.5885 55.1396C45.9387 54.594 41.4285 56.3271 38.7877 59.2477C35.316 63.067 33.8917 65.1531 31.9036 69.4217C30.2716 72.9521 28.788 75.1346 28.0165 75.1346C27.7791 75.1346 27.245 74.3001 26.7999 73.3052C26.0878 71.6363 25.9988 71.0906 26.0285 68.2342C26.0581 65.6988 26.2065 64.6075 26.7406 63.0991C29.6822 57.4111 33.773 52.9572 40.0636 51.5129C41.9626 51.0957 47.1553 51.1278 48.2235 51.5771ZM54.7812 54.4014C53.5486 54.5418 52.5518 54.6444 51.4875 53.7917C50.5973 53.0535 50.1819 52.3474 50.627 52.3474C51.847 52.3474 53.6601 53.8223 54.7812 54.4014ZM80.1215 55.8136C80.5369 56.1346 80.9523 56.8727 81.071 57.4183C81.16 57.9639 81.4865 58.7984 81.7535 59.2156C82.4063 60.3069 82.3469 61.0771 81.6051 62.1042C81.0117 62.9065 80.8336 62.9707 79.4687 62.8423C77.362 62.6177 76.7982 61.8795 77.3323 59.9859C77.5993 58.991 77.8367 58.6058 78.2521 58.6058C78.7269 58.6058 78.8159 58.8305 78.7566 59.8575C78.6676 61.2376 79.083 61.1413 79.4094 59.6971C79.6467 58.67 79.0236 58.0281 77.8664 58.1886C77.362 58.2528 76.9169 58.5417 76.7388 58.991C76.3828 59.9217 75.4036 59.9859 75.4036 59.0552C75.4036 58.7021 75.2849 58.5096 75.1068 58.6058C74.9585 58.7021 74.8101 58.67 74.8101 58.4775C74.8101 58.2849 74.454 57.964 74.0386 57.7072L73.2672 57.2579L74.187 56.3271C75.8783 54.594 78.3708 54.3694 80.1215 55.8136ZM57.333 56.2308C59.4694 57.8998 61.1311 59.7612 61.3388 60.8204C61.6652 62.4572 62.9411 65.5383 64.0687 67.3998C65.7303 70.1278 65.76 70.2883 64.2764 68.5552C63.5346 67.6565 62.229 65.7629 61.3981 64.2866C59.7068 61.366 56.5912 57.9319 54.5734 56.7764L53.2975 56.0704L54.2767 55.8457C54.8108 55.7173 55.3449 55.5569 55.4339 55.4285C55.7603 55.1075 55.9681 55.2038 57.333 56.2308ZM53.2085 57.8677C55.5526 59.0552 57.3627 60.9808 59.0837 64.1582C60.4486 66.6295 60.775 67.4319 60.4486 67.4319C60.3596 67.4319 59.4397 66.8542 58.3715 66.116C55.79 64.3829 53.3569 63.8694 50.8644 64.6075C49.9149 64.8964 48.6983 65.0569 48.1938 64.9606C45.7607 64.5433 42.9715 66.3406 42.5857 68.5873C42.378 69.8711 42.8825 71.4758 43.6539 71.9251C44.01 72.1177 44.2474 72.7917 44.3958 73.8508C44.5145 74.7173 44.9299 75.969 45.3156 76.5788C45.7014 77.2207 46.0278 77.8626 46.0278 78.0231C46.0278 78.4724 42.9715 78.1194 41.7252 77.5738C40.39 76.964 40.2416 76.5146 40.8647 74.9741C41.5472 73.2089 41.4879 70.4167 40.746 68.8119C40.0636 67.3677 39.2031 66.6616 37.7788 66.3406C37.2743 66.2123 36.8293 66.0518 36.8293 66.0197C36.8293 65.9876 37.2447 65.0248 37.7491 63.8694C39.1734 60.6599 41.3395 58.5096 44.2771 57.3542C46.3838 56.5197 51.0424 56.7765 53.2085 57.8677ZM22.26 70.1278C19.0735 73.1249 18.2766 66.6234 20.6281 68.2342C21.0435 68.5231 20.4539 68.2746 21.7259 68.5552C20.9004 67.9503 20.5984 67.1751 19.7379 67.3677C16.8289 67.963 18.8696 72.4498 21.2847 72.0038C22.0265 71.8434 22.2897 71.3795 22.2897 71.6684C22.2897 72.4065 20.5984 75.263 19.5302 76.3863C18.6697 77.2528 18.3136 77.4133 17.6905 77.2528C16.83 77.0282 14.2781 74.6211 14.2781 74.0434C14.2781 73.8508 14.6342 73.3373 15.0496 72.8879C16.4739 71.4437 16.741 69.518 15.7618 67.9133C15.4354 67.3677 15.0199 66.6937 14.8122 66.4048C14.4858 65.9234 14.5749 65.6988 15.3167 64.8322C19.3401 60.2244 26.9612 65.8904 22.26 70.1278ZM60.2706 69.1008C57.7933 70.2203 57.3468 69.896 54.6328 72.3744C53.1612 70.9623 52.3372 68.7631 50.627 66.79L49.7962 65.8592C51.7635 64.9726 60.2706 65.6772 60.2706 69.1008ZM44.099 71.2832C43.4759 71.2832 43.0308 70.1278 43.2385 69.1329C43.7694 66.7131 45.5382 66.1481 47.5411 66.1481C47.1099 66.7311 44.5593 71.2832 44.099 71.2832ZM49.8852 68.1379C50.7457 69.4217 51.0721 70.9623 50.4786 70.9623C50.3006 70.9623 49.8258 71.3153 49.4401 71.7646C48.5499 72.6954 48.4312 74.4927 49.2027 75.3271C49.6775 75.8407 49.6478 75.9048 48.6983 76.7714C48.1345 77.2849 47.5411 77.7021 47.363 77.7021C46.4728 77.67 45.3453 75.8086 44.9892 73.8508C44.8112 72.8559 44.9002 72.6312 45.731 71.9572C46.6509 71.2511 46.7102 70.9623 46.1761 69.6464C45.9684 69.0687 47.8971 66.79 48.5796 66.79C48.817 66.79 49.3807 67.3998 49.8852 68.1379ZM8.34362 70.0636C8.34362 69.1321 10.9598 66.6697 11.5779 67.2714C12.6535 69.5981 8.34362 72.3737 8.34362 70.0636ZM15.5541 69.839C15.5342 70.6965 13.7868 74.4577 13.1209 72.5028C12.5475 70.9965 13.5096 68.4891 14.0111 66.9825C14.7611 67.825 15.5997 68.5543 15.5541 69.839ZM38.847 67.6244C40.0339 68.5231 40.7757 70.545 40.6273 72.4707C40.479 74.1396 39.6778 75.8728 39.0547 75.8728C38.8767 75.8728 38.3129 74.9099 37.7491 73.7545C36.7402 71.6684 36.2358 68.7477 36.6216 67.5923C36.8589 66.9825 37.9865 66.9825 38.847 67.6244ZM25.1383 68.9403C25.0196 70.1599 25.7614 73.1126 26.6219 74.7815C27.4231 76.3863 27.4527 76.3542 25.257 77.4775C24.3965 77.8947 23.2096 78.1836 21.904 78.2157C18.8774 78.344 18.7587 78.1836 20.3313 76.4505C21.5479 75.1025 23.9811 70.3525 24.4558 68.3947C24.6932 67.4319 25.2273 67.8812 25.1383 68.9403ZM34.9005 70.1599C35.0192 71.1548 35.0489 72.0214 34.9896 72.0856C34.9302 72.1819 34.5741 72.0214 34.2181 71.7325C33.5059 71.219 33.3576 70.0315 33.862 69.0045C34.3961 67.9775 34.6928 68.2984 34.9005 70.1599ZM46.2651 70.8981C46.3245 71.1227 46.1464 71.3795 45.8794 71.4758C45.2859 71.7325 45.0782 71.5079 45.3156 70.8339C45.5233 70.2562 46.0574 70.2883 46.2651 70.8981ZM34.4851 72.3423C35.1676 72.6633 35.6424 73.1447 35.7611 73.6582C35.8501 74.0754 36.4138 75.1025 37.0073 75.9369C37.5711 76.7714 38.0162 77.4775 37.9568 77.5417C36.8293 78.5687 32.7938 78.665 30.7761 77.7021C29.3221 77.0282 29.1441 76.7393 29.8859 76.0653C30.1529 75.8407 30.9541 74.7173 31.6959 73.6261C32.4377 72.5028 33.1202 71.6363 33.2389 71.7004C33.3279 71.7325 33.8917 72.0535 34.4851 72.3423ZM51.0721 72.0856C51.0721 73.1447 50.0929 75.1667 49.6181 75.0704C48.906 74.9099 48.8763 73.4657 49.5885 72.4707C50.2709 71.54 51.0721 71.3153 51.0721 72.0856ZM14.8122 78.2157C14.6342 78.6971 11.6721 78.8138 9.67486 77.2528C7.35558 75.4088 7.75017 74.8136 7.75017 73.1447C7.75017 71.9025 14.9293 77.9308 14.8122 78.2157ZM53.5942 73.2089C54.8108 75.7444 53.0601 78.665 50.3303 78.665H49.2324L50.1819 77.4775C51.1314 76.3221 52.5557 73.4336 52.5557 72.6312C52.5557 71.9251 53.1195 72.214 53.5942 73.2089Z" fill="black"/>
</svg>
