<svg width="186" height="196" viewBox="0 0 186 196" fill="none" xmlns="http://www.w3.org/2000/svg">
<g filter="url(#filter0_d)">
<path d="M150.052 148.749C158.777 147.354 156.654 141.534 156.654 141.534C155.127 142.614 153.66 145.943 149.251 145.543C143.639 142.737 144.039 137.125 152.056 132.315C165.685 129.509 173.999 135.46 173.301 154.361C172.901 165.184 157.679 180.015 145.643 180.015C126.001 180.015 113.575 173.602 99.5453 153.159C92.5618 139.45 90.5456 130.318 89.1233 114.276H82.7097C82.5625 130.222 84.8585 138.418 91.1275 152.357C98.5191 168.792 114.377 186.429 146.044 186.83C162.479 186.028 176.736 173.581 180.517 155.163C184.124 130.711 163.681 120.289 150.052 126.703C136.423 133.116 141.328 150.145 150.052 148.749Z" fill="black" stroke="black"/>
<path d="M93.9335 98.6433H68.2792V109.867H93.9335V98.6433Z" fill="#FF7A00"/>
<path d="M65.0724 41.3222C82.9822 49.254 88.1027 59.4812 83.5114 93.8333H91.5284C96.3385 44.1282 151.255 42.5248 151.255 74.5926C150.352 81.9926 147.028 86.7956 138.828 87.8206C129.208 89.0232 128.807 74.5926 138.027 80.2045C137.225 76.196 134.018 74.1918 130.01 76.196C126.402 78.2003 127.087 82.6096 127.605 84.213C131.613 96.6393 155.664 93.4325 155.664 74.9935C155.664 40.1197 107.161 38.5163 93.1318 69.3816C91.9292 49.3392 79.1021 38.1154 65.0724 34.5078V41.3222Z" fill="black" stroke="black"/>
<path d="M79.1022 114.677H73.4903C69.0809 139.129 51.0427 156.615 35.0088 155.965C5.34604 154.762 5.34605 123.496 21.38 120.289C32.2029 117.483 35.8105 135.521 22.1817 126.302C23.3842 129.108 22.9834 129.108 24.1859 131.513C43.8275 135.922 35.0088 109.867 16.5698 116.281C-4.27431 125.901 3.74265 159.973 35.0088 161.977C55.4521 161.576 75.0936 145.142 79.1022 114.677Z" fill="black" stroke="black"/>
<path d="M50.6419 40.1194V33.7058C37.599 37.9997 28.9961 43.3262 27.3927 58.5584C27.3927 78.6008 53.8487 83.0101 55.0512 67.3771C54.6504 62.5669 47.836 60.5626 43.0258 64.1703C53.047 63.1591 51.87 73.5634 43.8275 72.9889C26.9919 71.7864 28.5952 44.5287 50.6419 40.1194Z" fill="black" stroke="black"/>
<path d="M79.503 93.4321H72.2877C69.234 82.4899 66.542 76.4727 61.4648 65.7735C56.8701 55.0042 55.8529 53.7483 53.8487 36.1108C53.8487 17.2708 72.2094 0.903511 88.7225 0.0346027C111.571 -1.16766 124.398 29.3093 101.95 36.9125C88.6895 41.404 86.2565 22.3253 99.5454 24.4862C97.942 25.2879 91.9293 26.4904 94.3344 30.8997C103.554 41.7226 123.195 13.6631 88.7225 5.24538C80.7055 5.24538 59.4071 19.2754 61.4648 36.9125C64.2707 60.9633 73.0894 69.782 79.503 93.4321Z" fill="#4F4F4F"/>
</g>
<defs>
<filter id="filter0_d" x="0.501221" y="0" width="184.935" height="195.33" filterUnits="userSpaceOnUse" color-interpolation-filters="sRGB">
<feFlood flood-opacity="0" result="BackgroundImageFix"/>
<feColorMatrix in="SourceAlpha" type="matrix" values="0 0 0 0 0 0 0 0 0 0 0 0 0 0 0 0 0 0 127 0"/>
<feOffset dy="4"/>
<feGaussianBlur stdDeviation="2"/>
<feColorMatrix type="matrix" values="0 0 0 0 0 0 0 0 0 0 0 0 0 0 0 0 0 0 0.25 0"/>
<feBlend mode="normal" in2="BackgroundImageFix" result="effect1_dropShadow"/>
<feBlend mode="normal" in="SourceGraphic" in2="effect1_dropShadow" result="shape"/>
</filter>
</defs>
</svg>
