<svg width="73" height="73" viewBox="0 0 73 73" fill="none" xmlns="http://www.w3.org/2000/svg">
<g filter="url(#filter0_d)">
<path fill-rule="evenodd" clip-rule="evenodd" d="M42.6149 38.813C44.7669 42.3372 50.6922 45.1753 55.337 46.2619L56.6196 67.7778C56.7624 70.1386 55.2155 72.0669 53.185 72.0669H9.38334C7.35497 72.0669 5.81239 70.1322 5.94875 67.7778L7.2314 46.2598C11.8719 45.1774 17.8058 42.3351 19.9577 38.8066C21.1551 36.8442 21.2851 34.6326 20.2986 32.7149C20.0493 32.2334 19.5806 31.4919 19.0458 30.6524C19.0458 30.6503 19.0437 30.6503 19.0437 30.6503C19.0288 30.6162 19.0288 30.6162 19.016 30.5906H42.8578C42.8502 30.6072 42.8464 30.6176 42.8405 30.6337C42.8364 30.6447 42.8315 30.6582 42.8237 30.678C42.5233 31.3939 42.4274 31.9458 42.4786 32.3655L42.465 32.3877C42.3929 32.5049 42.3073 32.6442 42.2612 32.7384C41.2875 34.6368 41.4175 36.8442 42.6149 38.813ZM20.011 61.081H24.1231C24.8795 61.081 25.4952 60.4652 25.4952 59.7067C25.4952 58.9482 24.8774 58.3324 24.1231 58.3324H20.011C19.2503 58.3324 18.6388 58.9482 18.6388 59.7067C18.6388 60.4652 19.2525 61.081 20.011 61.081ZM20.011 55.8501H24.1231C24.8795 55.8501 25.4952 55.2343 25.4952 54.4758C25.4952 53.713 24.8774 53.1058 24.1231 53.1058H20.011C19.2503 53.1058 18.6388 53.7173 18.6388 54.4758C18.6388 55.2343 19.2525 55.8501 20.011 55.8501ZM20.011 50.6192H24.1231C24.8795 50.6192 25.4952 50.0056 25.4952 49.2471C25.4952 48.4864 24.8774 47.8728 24.1231 47.8728H20.011C19.2503 47.8728 18.6388 48.4928 18.6388 49.2471C18.6388 50.0056 19.2525 50.6192 20.011 50.6192ZM29.226 61.081H33.3403C34.1009 61.081 34.7167 60.4652 34.7167 59.7067C34.7167 58.9482 34.0988 58.3324 33.3403 58.3324H29.226C28.4654 58.3324 27.8539 58.9482 27.8539 59.7067C27.8539 60.4652 28.4696 61.081 29.226 61.081ZM29.226 55.8501H33.3403C34.1009 55.8501 34.7167 55.2343 34.7167 54.4758C34.7167 53.713 34.0988 53.1058 33.3403 53.1058H29.226C28.4654 53.1058 27.8539 53.7173 27.8539 54.4758C27.8539 55.2343 28.4696 55.8501 29.226 55.8501ZM29.226 50.6192H33.3403C34.1009 50.6192 34.7167 50.0056 34.7167 49.2471C34.7167 48.4864 34.0988 47.8728 33.3403 47.8728H29.226C28.4654 47.8728 27.8539 48.4928 27.8539 49.2471C27.8539 50.0056 28.4696 50.6192 29.226 50.6192ZM38.4495 61.081H42.5617C43.318 61.081 43.9381 60.4652 43.9381 59.7067C43.9381 58.9482 43.318 58.3324 42.5617 58.3324H38.4495C37.691 58.3324 37.0731 58.9482 37.0731 59.7067C37.0731 60.4652 37.6953 61.081 38.4495 61.081ZM38.4495 55.8501H42.5617C43.318 55.8501 43.9338 55.2343 43.9381 54.4758C43.9381 53.713 43.318 53.1058 42.5617 53.1058H38.4495C37.691 53.1058 37.0731 53.7173 37.0731 54.4758C37.0731 55.2343 37.6953 55.8501 38.4495 55.8501ZM38.4495 50.6192H42.5617C43.318 50.6192 43.9338 50.0056 43.9381 49.2471C43.9381 48.4864 43.318 47.8728 42.5617 47.8728H38.4495C37.691 47.8728 37.0731 48.4928 37.0731 49.2471C37.0731 50.0056 37.6953 50.6192 38.4495 50.6192ZM58.8514 21.9616C58.839 21.8433 58.8266 21.7253 58.8206 21.6076C58.6821 12.8589 49.4884 6.11739 38.4985 7.84752C34.3054 8.50804 30.1336 9.31344 25.9917 10.2339L25.9874 10.2126C25.9331 10.2264 25.8777 10.2424 25.8223 10.2584C25.7669 10.2744 25.7115 10.2904 25.6572 10.3042C25.6159 10.3126 25.5761 10.3205 25.5365 10.3283C25.4657 10.3422 25.3957 10.356 25.3205 10.3724L25.3248 10.3937C21.219 11.4654 17.141 12.6459 13.1034 13.9712C2.5376 17.4335 -2.57807 27.6226 1.27839 35.4721C1.33338 35.5893 1.38099 35.7104 1.42858 35.8315C1.52113 36.067 1.61357 36.3021 1.75991 36.5076C2.61217 37.6778 3.73141 38.6329 4.84905 39.5867C5.46934 40.1161 6.08913 40.645 6.66252 41.2101C8.72285 43.2342 20.1452 35.0566 17.744 32.2718C17.4589 31.9453 16.9432 31.4529 16.3565 30.8927C15.0974 29.6903 13.5109 28.1754 13.1738 27.3179C12.7284 26.1886 14.0473 24.908 15.445 24.4478C18.0362 23.5985 21.2086 22.9114 24.2509 22.2525C25.5363 21.9741 26.7985 21.7007 27.9838 21.4222V21.4286C28.0115 21.4217 28.0392 21.4146 28.0669 21.4076C28.15 21.3864 28.2331 21.3652 28.3162 21.3476C28.3748 21.3307 28.434 21.318 28.4928 21.3054C28.5452 21.2941 28.5974 21.2829 28.6486 21.2688L28.6465 21.2624C29.8071 20.9749 31.0316 20.6495 32.279 20.3181C35.3114 19.5124 38.4788 18.6708 41.1917 18.2496C42.6362 18.0195 44.4004 18.5586 44.5197 19.7624C44.6082 20.6815 43.8888 22.7437 43.3166 24.3842C43.0478 25.1548 42.8114 25.8324 42.7066 26.2547C41.8373 29.8257 55.7248 31.9031 56.6431 29.1673C56.897 28.3972 57.2099 27.6391 57.5229 26.8808C58.082 25.5265 58.6413 24.1714 58.8653 22.7454C58.9064 22.4845 58.8788 22.2225 58.8514 21.9616Z" fill="black"/>
<path d="M65.6232 28.1436L62.6978 26.765C65.8853 19.9979 62.9769 11.8991 56.21 8.71159L57.5864 5.7904C65.9684 9.73646 69.5713 19.7657 65.6232 28.1436Z" fill="#FF7A00"/>
<path d="M70.6792 30.5257L67.7496 29.1472C72.2559 19.5931 68.1437 8.15761 58.5942 3.65757L59.9685 0.72998C71.1373 5.99282 75.9376 19.3587 70.6792 30.5257Z" fill="#FF7A00"/>
</g>
<defs>
<filter id="filter0_d" x="-4.0022" y="0.72998" width="80.8143" height="79.3369" filterUnits="userSpaceOnUse" color-interpolation-filters="sRGB">
<feFlood flood-opacity="0" result="BackgroundImageFix"/>
<feColorMatrix in="SourceAlpha" type="matrix" values="0 0 0 0 0 0 0 0 0 0 0 0 0 0 0 0 0 0 127 0"/>
<feOffset dy="4"/>
<feGaussianBlur stdDeviation="2"/>
<feColorMatrix type="matrix" values="0 0 0 0 0 0 0 0 0 0 0 0 0 0 0 0 0 0 0.25 0"/>
<feBlend mode="normal" in2="BackgroundImageFix" result="effect1_dropShadow"/>
<feBlend mode="normal" in="SourceGraphic" in2="effect1_dropShadow" result="shape"/>
</filter>
</defs>
</svg>
