<svg width="175" height="149" viewBox="0 0 175 149" fill="none" xmlns="http://www.w3.org/2000/svg">
<path d="M57.8629 67.389V131.603H59.9799V69.506H104.083V105.494H106.2V67.389H57.8629Z" fill="black"/>
<path d="M45.5141 109.728V111.845C-4.93949 107.964 21.5222 27.1674 66.3307 61.3912L64.9194 62.8025C23.6391 31.0484 -1.76409 106.2 45.5141 109.728Z" fill="black"/>
<path d="M10.9375 43.0444V58.9214H15.1714V47.2783H26.8145V43.0444H10.9375Z" fill="#FF7A00"/>
<path d="M117.49 140.071L117.49 124.194L113.256 124.194L113.256 135.837L101.613 135.837L101.613 140.071L117.49 140.071Z" fill="#FF7A00"/>
<path fill-rule="evenodd" clip-rule="evenodd" d="M138.306 34.9293H175V112.197L157.006 148.185L138.306 112.197V34.9293ZM165.827 118.548L157.006 135.837L147.833 118.548H165.827ZM149.244 104.435H146.774V40.5745H149.244V104.435Z" fill="#4F4F4F"/>
<path fill-rule="evenodd" clip-rule="evenodd" d="M0 26.4617V0H170.413V26.4617H0ZM2.82258 2.82258V23.6391H167.591V2.82258H158.064V16.9355H155.242V2.82258H151.008V10.9375H148.185V2.82258H143.952V16.9355H141.129V2.82258H136.189V10.9375H133.367V2.82258H129.133V16.9355H126.31V2.82258H121.371V10.9375H118.548V2.82258H114.667V16.9355H111.845V2.82258H107.258V10.9375H104.435V2.82258H100.202V16.9355H97.379V2.82258H93.1451V10.9375H90.3226V2.82258H86.0887V16.9355H83.2661V2.82258H78.6794V10.9375H75.8568V2.82258H71.2702V16.9355H68.4476V2.82258H63.8609V10.9375H61.0383V2.82258H56.8044V16.9355H53.9818V2.82258H49.748V10.9375H46.9254V2.82258H42.6915V16.9355H39.8689V2.82258H34.9294V10.9375H32.1068V2.82258H27.873V16.9355H25.0504V2.82258H20.4637V10.9375H17.6411V2.82258H13.4073V16.9355H10.5847V2.82258H2.82258Z" fill="black"/>
<path fill-rule="evenodd" clip-rule="evenodd" d="M1.41125 34.9293V148.538H127.722V34.9293H1.41125ZM6.35077 143.599V39.8688H122.782V143.599H6.35077Z" fill="black"/>
</svg>
