<svg width="17" height="17" viewBox="0 0 17 17" fill="none" xmlns="http://www.w3.org/2000/svg">
<path d="M16.1538 8.38465C16.1538 6.77849 15.0769 5.70773 13.4615 5.70773H10.7692V3.0308C10.7692 1.42465 9.69225 0.353882 8.07686 0.353882C6.46148 0.353882 5.38455 1.42465 5.38455 3.0308V5.70773H2.69225C1.07686 5.70773 -6.10352e-05 6.77849 -6.10352e-05 8.38465C-6.10352e-05 9.9908 1.07686 11.0616 2.69225 11.0616H5.38455V13.7385C5.38455 15.3446 6.46148 16.4154 8.07686 16.4154C9.69225 16.4154 10.7692 15.3446 10.7692 13.7385V11.0616H13.4615C15.0769 11.0616 16.1538 9.9908 16.1538 8.38465Z" fill="black"/>
</svg>
