<svg width="18" height="17" viewBox="0 0 18 17" fill="none" xmlns="http://www.w3.org/2000/svg">
<path d="M14.4229 6.04623H11.7306V3.36931C11.7306 1.76315 10.6537 0.692383 9.03833 0.692383C7.42295 0.692383 6.34603 1.76315 6.34603 3.36931V6.04623H3.65373C2.03835 6.04623 0.961426 7.117 0.961426 8.72315C0.961426 10.3293 2.03835 11.4001 3.65373 11.4001H6.34603V14.077C6.34603 15.6832 7.42295 16.7539 9.03833 16.7539C10.6537 16.7539 11.7306 15.6832 11.7306 14.077V11.4001H14.4229C16.0383 11.4001 17.1152 10.3293 17.1152 8.72315C17.1152 7.117 16.0383 6.04623 14.4229 6.04623Z" fill="#FF7A00"/>
</svg>
