<svg width="183" height="175" viewBox="0 0 183 175" fill="none" xmlns="http://www.w3.org/2000/svg">
<g clip-path="url(#clip0)" filter="url(#filter0_d)">
<path d="M68.8736 51.1648C48.6974 51.1648 32.2827 67.5794 32.2827 87.7557C32.2827 107.932 48.6974 124.347 68.8736 124.347C89.0499 124.347 105.465 107.932 105.465 87.7557C105.465 67.5794 89.0502 51.1648 68.8736 51.1648ZM68.8736 119.044C51.6214 119.044 37.5857 105.008 37.5857 87.7557C37.5857 70.5035 51.6214 56.4678 68.8736 56.4678C86.1258 56.4678 100.161 70.5035 100.161 87.7557C100.161 105.008 86.1261 119.044 68.8736 119.044Z" fill="#FF7A00"/>
<path fill-rule="evenodd" clip-rule="evenodd" d="M133.747 138.841V144.145V144.321C133.747 148.902 130.02 152.629 125.439 152.629H70.2786C52.9533 152.629 36.5178 146.049 23.9994 134.1C11.3683 122.043 4.26828 105.941 4.00773 88.7621C3.73904 71.0482 10.4841 54.3995 23.0011 41.8826C35.518 29.3657 52.167 22.6167 69.8806 22.8893C77.4833 23.0045 84.874 24.4622 91.7973 27.143L97.0045 29.435C103.7 32.7487 109.859 37.2669 115.218 42.8807C120.055 47.9486 124.012 53.6585 127.009 59.8093L129.28 65.0378C132.21 72.6448 133.747 80.798 133.747 89.1602V138.841ZM128.444 144.321C128.444 145.978 127.096 147.326 125.439 147.326H70.2786C37.151 147.326 9.80076 121.018 9.31005 88.6819C9.06328 72.415 15.2572 57.1267 26.751 45.6326C38.0245 34.359 52.9473 28.1845 68.8645 28.1845C69.1756 28.1845 69.4885 28.187 69.7999 28.1916C102.137 28.6823 128.444 56.0329 128.444 89.1602V144.321Z" fill="black"/>
<path d="M84.9627 42.2441C87.0238 42.9728 89.0541 43.8517 90.9986 44.8568C91.3878 45.0579 91.8039 45.1534 92.214 45.1534C93.1739 45.1534 94.1005 44.6305 94.5718 43.7187C95.2442 42.4177 94.7347 40.8183 93.4337 40.1459C91.2747 39.0298 89.0195 38.0537 86.7307 37.2444C85.3494 36.7562 83.8353 37.4799 83.347 38.8604C82.8588 40.241 83.5821 41.7559 84.9627 42.2441Z" fill="#4F4F4F"/>
<path d="M101.606 45.357C100.448 44.4615 98.782 44.6747 97.8865 45.8329C96.991 46.9914 97.2039 48.6565 98.3624 49.5524C104.127 54.0091 108.883 59.8032 112.116 66.3075C112.579 67.2398 113.517 67.7796 114.492 67.7796C114.888 67.7796 115.291 67.6905 115.67 67.5021C116.981 66.8502 117.516 65.2589 116.864 63.9477C113.277 56.7295 108.001 50.3012 101.606 45.357Z" fill="black"/>
<path d="M87.1497 74.1532C85.882 74.8861 85.4482 76.5081 86.181 77.7759C87.9261 80.7947 88.8485 84.2456 88.8485 87.7558C88.8485 98.7698 79.8878 107.731 68.8737 107.731C57.8597 107.731 48.899 98.7698 48.899 87.7558C48.899 76.7418 57.8597 67.7811 68.8737 67.7811C73.4654 67.7811 77.7818 69.2952 81.356 72.1603C82.499 73.0763 84.1677 72.8921 85.0833 71.7498C85.9993 70.6072 85.8155 68.9385 84.6729 68.0225C80.2123 64.4472 74.6013 62.478 68.8737 62.478C54.9356 62.478 43.5959 73.8177 43.5959 87.7558C43.5959 101.694 54.9356 113.034 68.8737 113.034C82.8119 113.034 94.1515 101.694 94.1515 87.7558C94.1515 83.315 92.9831 78.9468 90.7721 75.1222C90.0395 73.8534 88.4175 73.4203 87.1497 74.1532Z" fill="#4F4F4F"/>
<path d="M133.74 138.341L133.74 143.644H176.44C177.904 143.644 179.091 142.456 179.091 140.992V124.022C179.091 122.558 177.904 121.371 176.44 121.371C174.975 121.371 173.788 122.558 173.788 124.022V138.341H133.74Z" fill="#FF7A00"/>
<path d="M131.926 62.7746L129.356 65.3211L127.109 60.0824L128.194 59.0076C129.143 58.0669 129.35 56.5703 128.698 55.3674C122.486 43.9163 113.18 34.5257 101.787 28.2102C100.589 27.5464 99.0909 27.7408 98.1416 28.6811L97.2428 29.5718L92.046 27.2562L94.4091 24.9145C97.0219 22.3254 101.113 21.7734 104.357 23.5721C116.636 30.3781 126.665 40.4986 133.359 52.8389C135.128 56.0999 134.539 60.1855 131.926 62.7746Z" fill="#FF7A00"/>
</g>
<defs>
<filter id="filter0_d" x="0" y="0" width="183" height="183" filterUnits="userSpaceOnUse" color-interpolation-filters="sRGB">
<feFlood flood-opacity="0" result="BackgroundImageFix"/>
<feColorMatrix in="SourceAlpha" type="matrix" values="0 0 0 0 0 0 0 0 0 0 0 0 0 0 0 0 0 0 127 0"/>
<feOffset dy="4"/>
<feGaussianBlur stdDeviation="2"/>
<feColorMatrix type="matrix" values="0 0 0 0 0 0 0 0 0 0 0 0 0 0 0 0 0 0 0.25 0"/>
<feBlend mode="normal" in2="BackgroundImageFix" result="effect1_dropShadow"/>
<feBlend mode="normal" in="SourceGraphic" in2="effect1_dropShadow" result="shape"/>
</filter>
<clipPath id="clip0">
<rect width="175" height="175" fill="white" transform="translate(4)"/>
</clipPath>
</defs>
</svg>
