<svg width="77" height="45" viewBox="0 0 77 45" fill="none" xmlns="http://www.w3.org/2000/svg">
<path d="M76.5918 40.2096C76.4986 40.0086 76.4117 39.842 76.3309 39.7084C74.995 37.3023 72.442 34.349 68.6736 30.8477L68.5939 30.7675L68.5541 30.7282L68.5138 30.6879H68.4733C66.763 29.0575 65.68 27.9612 65.2264 27.4C64.3965 26.3308 64.2106 25.2486 64.6642 24.1521C64.9846 23.3236 66.1883 21.574 68.2724 18.9008C69.3686 17.4841 70.2369 16.3487 70.878 15.4933C75.5022 9.34572 77.5069 5.41735 76.8919 3.70662L76.653 3.30685C76.4925 3.06617 76.0783 2.84599 75.4109 2.64519C74.7419 2.44481 73.8869 2.41167 72.8443 2.54521L61.2985 2.62497C61.1114 2.55869 60.8444 2.56487 60.4964 2.64519C60.1489 2.72551 59.975 2.76581 59.975 2.76581L59.7741 2.86621L59.6146 2.98683C59.4809 3.06659 59.3339 3.20687 59.1734 3.40739C59.0137 3.6072 58.8802 3.8417 58.7735 4.10892C57.5164 7.34291 56.0872 10.3497 54.4832 13.1292C53.4943 14.7865 52.586 16.2229 51.7566 17.4391C50.9282 18.6548 50.2333 19.5505 49.6725 20.1247C49.1108 20.6995 48.6039 21.1599 48.1486 21.5077C47.6941 21.8557 47.3471 22.0027 47.1069 21.9489C46.866 21.8951 46.6393 21.8418 46.4246 21.7884C46.0506 21.5477 45.7498 21.2204 45.5231 20.8062C45.2953 20.3919 45.142 19.8706 45.0618 19.2425C44.982 18.6139 44.9349 18.0733 44.9214 17.6188C44.9089 17.1648 44.9146 16.5227 44.9417 15.6942C44.9695 14.8653 44.982 14.3045 44.982 14.0104C44.982 12.9946 45.0018 11.8922 45.0416 10.7029C45.082 9.51352 45.1147 8.57116 45.1421 7.87693C45.1694 7.18199 45.182 6.44676 45.182 5.67165C45.182 4.89653 45.1348 4.28866 45.0416 3.84746C44.9495 3.40682 44.8081 2.97911 44.6217 2.56445C44.4343 2.15021 44.1599 1.82978 43.7998 1.6023C43.4391 1.3751 42.9906 1.1948 42.4569 1.06084C41.0402 0.740262 39.2362 0.566845 37.0441 0.539884C32.0732 0.486525 28.879 0.807523 27.4625 1.50246C26.9012 1.79607 26.3933 2.19725 25.9392 2.70473C25.458 3.29294 25.3909 3.61394 25.7383 3.66674C27.3422 3.907 28.4776 4.48173 29.1458 5.39039L29.3867 5.87188C29.574 6.21928 29.761 6.83432 29.9482 7.71615C30.1351 8.59798 30.2557 9.57347 30.3088 10.6421C30.4422 12.5935 30.4422 14.2639 30.3088 15.6535C30.175 17.0436 30.0486 18.1258 29.928 18.901C29.8074 19.6761 29.6271 20.3042 29.3867 20.7851C29.1458 21.2662 28.9856 21.5602 28.9053 21.6669C28.8251 21.7737 28.7583 21.8409 28.7052 21.8673C28.3578 22.0004 27.9965 22.0683 27.6226 22.0683C27.2481 22.0683 26.794 21.8809 26.2595 21.5066C25.7252 21.1322 25.1707 20.618 24.596 19.9631C24.0212 19.308 23.3731 18.3926 22.6512 17.2168C21.9298 16.0409 21.1814 14.6512 20.4063 13.0476L19.765 11.8846C19.3641 11.1365 18.8165 10.0471 18.1215 8.6175C17.4262 7.18733 16.8116 5.80392 16.2773 4.46755C16.0637 3.90629 15.7428 3.479 15.3152 3.18496L15.1146 3.06434C14.9812 2.95762 14.767 2.8443 14.4733 2.72354C14.1791 2.60292 13.8722 2.51642 13.5512 2.46321L2.5663 2.54296C1.44379 2.54296 0.682157 2.79726 0.281119 3.30516L0.12062 3.54542C0.0404407 3.67924 0 3.89296 0 4.18713C0 4.48117 0.0801794 4.84205 0.240679 5.26934C1.84427 9.0382 3.58813 12.6729 5.47228 16.1742C7.35642 19.6754 8.99371 22.4957 10.3832 24.6326C11.7729 26.771 13.1894 28.7893 14.6328 30.6863C16.0762 32.5841 17.0316 33.8003 17.499 34.3346C17.9671 34.8699 18.3347 35.2701 18.6019 35.5373L19.6044 36.4993C20.2458 37.1409 21.1877 37.9092 22.4306 38.8044C23.6737 39.7001 25.0499 40.582 26.56 41.4513C28.0704 42.3192 29.8274 43.0275 31.8322 43.5753C33.8367 44.1236 35.7877 44.3437 37.6854 44.2375H42.296C43.231 44.1568 43.9394 43.8627 44.4209 43.3553L44.5804 43.1543C44.6877 42.9948 44.7881 42.747 44.8808 42.4135C44.9746 42.0794 45.0212 41.7114 45.0212 41.311C44.9938 40.162 45.0813 39.1264 45.2813 38.2044C45.4811 37.2827 45.7088 36.5877 45.9636 36.1197C46.2181 35.6521 46.5054 35.2576 46.8252 34.9377C47.1456 34.6171 47.3739 34.4229 47.5079 34.3561C47.641 34.2888 47.7473 34.2432 47.8275 34.2158C48.4689 34.0021 49.2238 34.209 50.0933 34.8377C50.9621 35.4658 51.7769 36.2413 52.5391 37.163C53.3009 38.0856 54.2161 39.1206 55.285 40.2697C56.3546 41.4192 57.2898 42.2736 58.0913 42.8357L58.8928 43.3168C59.4281 43.6378 60.123 43.9318 60.9785 44.199C61.8323 44.4661 62.5805 44.533 63.2229 44.3994L73.4857 44.2393C74.5008 44.2393 75.2907 44.0713 75.851 43.7378C76.4124 43.4037 76.7458 43.0357 76.8534 42.6353C76.9607 42.2346 76.9664 41.7799 76.8738 41.2716C76.7787 40.7645 76.685 40.41 76.5918 40.2096Z" fill="white"/>
</svg>
